<?xml version="1.0" encoding="UTF-8"?>
<svg version="1.1" xmlns="http://www.w3.org/2000/svg" width="412" height="417">
<path d="M0 0 C135.96 0 271.92 0 412 0 C412 137.61 412 275.22 412 417 C276.04 417 140.08 417 0 417 C0 279.39 0 141.78 0 0 Z " fill="#FDFDFD" transform="translate(0,0)"/>
<path d="M0 0 C0.66 0 1.32 0 2 0 C2.08636719 0.60585937 2.17273438 1.21171875 2.26171875 1.8359375 C4.45278892 14.90195228 10.46357154 23.51212691 21.1328125 31.28125 C32.92927435 39.29039072 53.38366822 53.10104194 68 52 C68.495 51.01 68.495 51.01 69 50 C69.66 50 70.32 50 71 50 C71.495 49.01 71.495 49.01 72 48 C72.64686768 48.24089355 73.29373535 48.48178711 73.96020508 48.72998047 C80.04913471 50.97375456 86.1726601 53.05223875 92.34838867 55.04321289 C120.15056982 64.05041218 154.21531482 75.24858528 175 97 C175.63292969 97.63808594 176.26585937 98.27617187 176.91796875 98.93359375 C186.59809487 109.12224432 189.49912334 119.67234383 189.27734375 133.40625 C189.0414252 139.17158285 187.61917835 143.86871663 185 149 C184.61070312 149.81339844 184.22140625 150.62679687 183.8203125 151.46484375 C176.70131391 164.79716951 163.40474348 175.93025751 149.17578125 181.0078125 C147.56448515 181.44794676 145.94732153 181.86734502 144.32421875 182.26171875 C141.56678387 183.13760983 139.43740769 184.44686115 137 186 C132.14279625 189.0593585 127.55387094 190.65580225 122 192 C120.96617187 192.26683594 119.93234375 192.53367187 118.8671875 192.80859375 C92.1406258 199.41125497 62.49468129 197.40599236 37 187 C40.13349732 185.95550089 40.98968256 186.06576355 44 187 C43.67 186.01 43.34 185.02 43 184 C42.85609703 180.25852269 43.02396868 176.8348824 43.5625 173.125 C43.706875 172.09375 43.85125 171.0625 44 170 C43.67 169.67 43.34 169.34 43 169 C42.95936168 167.33382885 42.957279 165.66611905 43 164 C43.67764404 163.96559814 44.35528809 163.93119629 45.0534668 163.89575195 C79.19432323 162.42998329 79.19432323 162.42998329 108.5390625 146.44873047 C112.52183625 141.76185921 113.41797535 139.16513645 113 133 C110.25027713 126.43121759 103.96536144 123.80711854 97.73046875 121.1171875 C96.52390625 120.59447266 95.31734375 120.07175781 94.07421875 119.53320312 C92.77883038 118.98003639 91.48325306 118.42731193 90.1875 117.875 C88.84631495 117.29891942 87.50516961 116.72274639 86.1640625 116.14648438 C64.17798922 106.69658525 64.17798922 106.69658525 41.6875 98.5625 C24.65150176 92.63144876 3.5021549 81.46093899 -5 65 C-5.42539063 64.22269531 -5.85078125 63.44539063 -6.2890625 62.64453125 C-6.72992188 61.81308594 -7.17078125 60.98164063 -7.625 60.125 C-8.02976562 59.36445313 -8.43453125 58.60390625 -8.8515625 57.8203125 C-14.40473326 44.18293397 -13.69450274 27.87118431 -8.5078125 14.296875 C-3.62882096 3.62882096 -3.62882096 3.62882096 0 0 Z " fill="#4096B9" transform="translate(106,114)"/>
<path d="M0 0 C9.94480198 8.23234793 23.12238798 19.87870897 25.9375 33.1875 C25.52242187 32.8471875 25.10734375 32.506875 24.6796875 32.15625 C0.41060466 13.06592543 -31.42674545 3.80026595 -62.21728516 7.44238281 C-66.88518889 8.13863444 -71.46381233 9.13302385 -76.0625 10.1875 C-77.13242188 10.4040625 -78.20234375 10.620625 -79.3046875 10.84375 C-89.78819349 13.1310604 -100.97130699 17.43771522 -107.375 26.4375 C-109.43318161 30.36904691 -109.89615029 33.83017324 -109.0625 38.1875 C-107.00240854 44.07521701 -103.20613771 46.92326837 -98.0625 50.1875 C-99.0525 50.6825 -99.0525 50.6825 -100.0625 51.1875 C-114.25678151 46.34315094 -127.83254215 38.89105088 -135.0625 25.1875 C-136.21899183 22.38261484 -136.62218495 20.26970535 -137.0625 17.1875 C-137.17851562 16.52621094 -137.29453125 15.86492187 -137.4140625 15.18359375 C-138.25009097 6.77686299 -133.26898118 -1.51221916 -128.390625 -8.0546875 C-96.9432236 -41.74833186 -31.19153178 -24.26553811 0 0 Z " fill="#2B3C70" transform="translate(265.0625,107.8125)"/>
<path d="M0 0 C12.33837901 4.65217569 24.17293542 12.17906456 30.625 23.9375 C33.48190219 30.33306512 34.26269432 35.57687777 32.33203125 42.33984375 C28.36927803 52.46303428 19.66456752 60.92596823 9.875 65.44140625 C-16.08339662 75.32329587 -43.44281137 73.43150556 -69 63 C-65.86650268 61.95550089 -65.01031744 62.06576355 -62 63 C-62.495 61.515 -62.495 61.515 -63 60 C-63.14390297 56.25852269 -62.97603132 52.8348824 -62.4375 49.125 C-62.293125 48.09375 -62.14875 47.0625 -62 46 C-62.33 45.67 -62.66 45.34 -63 45 C-63.04063832 43.33382885 -63.042721 41.66611905 -63 40 C-62.32235596 39.96559814 -61.64471191 39.93119629 -60.9465332 39.89575195 C-26.80567677 38.42998329 -26.80567677 38.42998329 2.5390625 22.44873047 C6.52183625 17.76185921 7.41797535 15.16513645 7 9 C5.28342189 5.30935707 2.96495162 2.76047219 0 0 Z " fill="#22548C" transform="translate(212,238)"/>
<path d="M0 0 C1.12792969 0.00064453 2.25585938 0.00128906 3.41796875 0.00195312 C9.32600026 0.03304803 15.0336134 0.29486757 20.875 1.1875 C20.875 1.5175 20.875 1.8475 20.875 2.1875 C20.28710693 2.20208252 19.69921387 2.21666504 19.09350586 2.23168945 C-0.8588864 2.78230155 -21.84896537 3.57960207 -37.125 18.1875 C-42.55893801 24.13200937 -47.22898665 31.38867032 -47.5625 39.625 C-47.09424598 48.29525186 -44.36909305 56.05106372 -38.125 62.1875 C-28.79718629 69.83003645 -18.07164323 75.92624257 -6.125 78.1875 C-3.73271311 79.08055874 -1.45556638 80.13646026 0.875 81.1875 C0.875 81.8475 0.875 82.5075 0.875 83.1875 C0.215 83.1875 -0.445 83.1875 -1.125 83.1875 C-1.62 84.6725 -1.62 84.6725 -2.125 86.1875 C-9.54442092 85.75842506 -15.51639045 83.21638212 -22.25 80.1875 C-23.35931885 79.6920166 -24.4686377 79.1965332 -25.61157227 78.68603516 C-41.65704629 71.36927083 -59.86545193 61.22161288 -67 44.125 C-68.27155567 40.36982099 -68.37122 37.12701998 -68.125 33.1875 C-68.785 32.8575 -69.445 32.5275 -70.125 32.1875 C-69.135 32.1875 -68.145 32.1875 -67.125 32.1875 C-66.8465625 30.95 -66.8465625 30.95 -66.5625 29.6875 C-64.6148306 24.94534841 -61.68013442 21.8229352 -58.125 18.1875 C-57.61066406 17.64867188 -57.09632812 17.10984375 -56.56640625 16.5546875 C-47.59907349 8.01224083 -34.88505517 4.84650528 -23.125 2.1875 C-22.39216797 2.00727295 -21.65933594 1.8270459 -20.90429688 1.64135742 C-13.90803929 0.04429337 -7.15462119 -0.07821508 0 0 Z " fill="#D9DADB" transform="translate(176.125,80.8125)"/>
<path d="M0 0 C7.17480397 1.30858751 14.1296512 3.07159003 21.125 5.125 C22.08148438 5.40214844 23.03796875 5.67929688 24.0234375 5.96484375 C26.35005287 6.63956221 28.67551422 7.3179883 31 8 C31 8.66 31 9.32 31 10 C31.66531738 10.20157715 32.33063477 10.4031543 33.01611328 10.61083984 C36.05266737 11.53137627 39.08883631 12.45317681 42.125 13.375 C43.69507813 13.85066406 43.69507813 13.85066406 45.296875 14.3359375 C52.757975 16.60260079 59.96032294 18.86155763 67 22.25 C72.00869319 24.63920066 77.04163853 26.85288353 82.1875 28.9375 C97.84609807 35.61049895 110.365334 45.73066799 118 61 C118.86669124 70.90028073 117.02004519 78.08211005 111 86 C108.7749986 87.60009547 106.76232778 88.90743235 104.375 90.1875 C103.75181885 90.53063232 103.1286377 90.87376465 102.48657227 91.22729492 C97.43228623 93.93171853 92.56494975 95.73214447 87 97 C85.97132813 97.26425781 84.94265625 97.52851563 83.8828125 97.80078125 C73.88453681 100.28270616 64.27731777 101.16848062 54 101 C54 100.67 54 100.34 54 100 C54.99257812 99.84144531 55.98515625 99.68289063 57.0078125 99.51953125 C73.5826946 96.7348032 87.46905945 92.43255806 98.55859375 79.02734375 C102.31520509 73.74365463 103.71319645 68.17413548 103.46484375 61.70703125 C101.68891489 51.36485729 95.26761758 43.97538444 87 38 C80.01804146 33.35296434 72.97625115 29.9321529 65.08129883 27.14526367 C59.86433758 25.20621247 54.80454171 22.91001786 49.71783447 20.65545654 C36.78303912 14.9328548 23.73013067 9.6967296 10.42675781 4.88183594 C6.94078819 3.61510332 3.47046746 2.30853691 0 1 C0 0.67 0 0.34 0 0 Z " fill="#ADAEB0" transform="translate(141,209)"/>
<path d="M0 0 C0.46148437 0.35191406 0.92296875 0.70382813 1.3984375 1.06640625 C3.58903506 2.72450678 5.79432548 4.36201548 8 6 C8.72445312 6.55300781 9.44890625 7.10601562 10.1953125 7.67578125 C22.41411357 16.68455831 35.1823037 22.00942731 50 25 C50.76376953 25.17273438 51.52753906 25.34546875 52.31445312 25.5234375 C55.36350469 26.06450556 58.29952624 26.21372836 61.39453125 26.31640625 C62.59658203 26.35830078 63.79863281 26.40019531 65.03710938 26.44335938 C66.90592773 26.50233398 66.90592773 26.50233398 68.8125 26.5625 C70.07771484 26.60568359 71.34292969 26.64886719 72.64648438 26.69335938 C75.76421889 26.7992447 78.88203035 26.90132405 82 27 C82 27.33 82 27.66 82 28 C76.06 28 70.12 28 64 28 C64.99 31.96 64.99 31.96 66 36 C65.625 38.375 65.625 38.375 65 41 C64.9020676 44.33485593 64.94171041 47.66454036 65 51 C58.45102338 51.45417959 54.5408075 50.33677233 48.875 47.125 C48.14071777 46.72079834 47.40643555 46.31659668 46.64990234 45.90014648 C27.49573355 35.12256307 11.65378854 20.71095516 0 2 C0 1.34 0 0.68 0 0 Z " fill="#70C9D4" transform="translate(85,250)"/>
<path d="M0 0 C0.66 0.33 1.32 0.66 2 1 C1.67 3.31 1.34 5.62 1 8 C0.34 8 -0.32 8 -1 8 C-0.67 8.99 -0.34 9.98 0 11 C0.99 11.33 1.98 11.66 3 12 C2.41466252 15.5922081 1.03046 17.37298229 -1.4375 20 C-3.82300246 22.54984814 -5.57857037 24.79999762 -7 28 C-7.66 28 -8.32 28 -9 28 C-9.86632688 40.64195518 -8.28869569 49.43167419 -0.25 59.75 C0.4925 60.4925 1.235 61.235 2 62 C2.66 62 3.32 62 4 62 C4.598125 62.763125 5.19625 63.52625 5.8125 64.3125 C8.0228194 67.02803527 9.93253932 68.38106242 13 70 C12.01 70.495 12.01 70.495 11 71 C-3.19428151 66.15565094 -16.77004215 58.70355088 -24 45 C-25.15649183 42.19511484 -25.55968495 40.08220535 -26 37 C-26.11601563 36.33871094 -26.23203125 35.67742187 -26.3515625 34.99609375 C-27.18759097 26.58936299 -22.20648118 18.30028084 -17.328125 11.7578125 C-12.51408875 6.59991652 -6.26379045 3.13189522 0 0 Z " fill="#2A478D" transform="translate(154,88)"/>
<path d="M0 0 C0.99 0.33 1.98 0.66 3 1 C3.94921875 3.06640625 3.94921875 3.06640625 4.6875 5.5625 C4.93886719 6.38878906 5.19023437 7.21507812 5.44921875 8.06640625 C5.63097656 8.70449219 5.81273437 9.34257812 6 10 C2.25 13 2.25 13 0 13 C0.37346219 19.22436975 1.97065497 21.56772046 6 26 C6.94238698 28.82716095 7.13465647 30.63176123 7.125 33.5625 C7.12886719 34.74005859 7.12886719 34.74005859 7.1328125 35.94140625 C7 38 7 38 6 40 C6.99 40.495 6.99 40.495 8 41 C3.42463369 46.36472663 -1.63218964 50.3100599 -7.625 53.9375 C-8.25801025 54.32671631 -8.89102051 54.71593262 -9.54321289 55.11694336 C-13.35239206 57.35234447 -16.52486672 58.56625631 -21 59 C-19.99714388 56.30000274 -18.94037507 53.90221511 -17.4375 51.4375 C-14.28598998 46.09363518 -14.29221226 40.04911615 -15 34 C-16.1815362 30.60446373 -17.88863545 27.89662575 -20 25 C-20.52335937 24.27167969 -21.04671875 23.54335938 -21.5859375 22.79296875 C-27.43263332 15.50374755 -35.16468995 10.88686655 -43 6 C-42.34 5.67 -41.68 5.34 -41 5 C-38.73298835 6.21272935 -36.64131416 7.4658917 -34.5 8.875 C-33.87504639 9.28121582 -33.25009277 9.68743164 -32.60620117 10.10595703 C-25.73309196 14.67981719 -19.79859489 20.1461804 -14 26 C-13.34 25.34 -12.68 24.68 -12 24 C-12.99 23.01 -13.98 22.02 -15 21 C-14.67 20.34 -14.34 19.68 -14 19 C-13.2575 19.165 -12.515 19.33 -11.75 19.5 C-8.80993422 20.11925696 -8.80993422 20.11925696 -5 20 C-4.34 18.68 -3.68 17.36 -3 16 C-3.928125 15.566875 -3.928125 15.566875 -4.875 15.125 C-7 14 -7 14 -9 12 C-6 10 -6 10 -3 10 C-2.34 8.35 -1.68 6.7 -1 5 C-0.34 5 0.32 5 1 5 C0.34 3.68 -0.32 2.36 -1 1 C-0.67 0.67 -0.34 0.34 0 0 Z " fill="#1A5098" transform="translate(273,236)"/>
<path d="M0 0 C3.12187831 -0.00221305 6.24341699 -0.02051521 9.36523438 -0.03930664 C11.37044152 -0.04223688 13.37565031 -0.04422415 15.38085938 -0.04516602 C16.76537292 -0.05594429 16.76537292 -0.05594429 18.17785645 -0.06694031 C23.37946179 -0.04858799 27.67429732 0.48875967 32.59960938 2.18530273 C32.59960938 2.84530273 32.59960938 3.50530273 32.59960938 4.18530273 C27.54958716 5.22120473 22.72544548 5.28781946 17.59960938 5.18530273 C17.59960938 5.84530273 17.59960938 6.50530273 17.59960938 7.18530273 C20.23960937 7.84530273 22.87960938 8.50530273 25.59960938 9.18530273 C18.82319599 13.70291166 9.52999889 12.3714787 1.6315918 12.37060547 C-0.56481672 12.37277989 -2.76071205 12.39094222 -4.95703125 12.40991211 C-13.27366864 12.44196556 -21.23489214 11.9152397 -29.40039062 10.18530273 C-28.41039062 7.87530273 -27.42039063 5.56530273 -26.40039062 3.18530273 C-28.71039063 3.84530273 -31.02039063 4.50530273 -33.40039062 5.18530273 C-33.73039063 4.52530273 -34.06039062 3.86530273 -34.40039062 3.18530273 C-35.72039062 3.51530273 -37.04039062 3.84530273 -38.40039062 4.18530273 C-36.59849664 1.82170235 -35.62021505 1.22570934 -32.65234375 0.68017578 C-31.50701172 0.62385986 -30.36167969 0.56754395 -29.18164062 0.50952148 C-28.5348938 0.47670578 -27.88814697 0.44389008 -27.22180176 0.41007996 C-18.1558301 0.00528833 -9.07322731 -0.00072101 0 0 Z " fill="#AAA8A8" transform="translate(191.400390625,347.814697265625)"/>
<path d="M0 0 C53.92550656 17.48470375 53.92550656 17.48470375 77 30 C77.64066406 30.34305176 78.28132813 30.68610352 78.94140625 31.03955078 C85.29567095 34.46144233 91.02069464 37.65117291 96 43 C92.0397664 41.71186343 88.16026025 40.31166474 84.296875 38.7578125 C83.23339844 38.33113281 82.16992188 37.90445313 81.07421875 37.46484375 C79.42873047 36.80162109 79.42873047 36.80162109 77.75 36.125 C76.66847656 35.69058594 75.58695312 35.25617188 74.47265625 34.80859375 C72.33152562 33.9485256 70.19073179 33.08761847 68.05029297 32.22583008 C65.2207219 31.08870215 62.38806847 29.9596228 59.5546875 28.83203125 C56.13463739 27.46593722 52.7503589 26.03603281 49.375 24.5625 C44.25879826 22.42535244 39.08814896 20.70138499 33.78466797 19.09057617 C27.32115384 17.12332082 20.90926189 15.0119084 14.5 12.875 C13.48518555 12.53815186 12.47037109 12.20130371 11.42480469 11.85424805 C5.90429785 10.01088753 0.43460719 8.08326609 -5 6 C-3.625 4 -3.625 4 -2 2 C-1.34 2 -0.68 2 0 2 C0 1.34 0 0.68 0 0 Z " fill="#AFB1B2" transform="translate(177,162)"/>
<path d="M0 0 C0.67999054 -0.0014502 1.35998108 -0.00290039 2.06057739 -0.00439453 C13.10576703 -0.00179471 23.40801809 1.12039925 34 4.375 C34 4.705 34 5.035 34 5.375 C32.54176788 5.4020043 31.08339325 5.42139787 29.625 5.4375 C28.81289062 5.44910156 28.00078125 5.46070312 27.1640625 5.47265625 C25 5.375 25 5.375 23 4.375 C5.31981472 4.13092292 -14.08221199 8.24908003 -28.91796875 18.0546875 C-31 19.375 -31 19.375 -33 19.375 C-33 18.715 -33 18.055 -33 17.375 C-33.61875 17.2925 -34.2375 17.21 -34.875 17.125 C-37 16.375 -37 16.375 -38.25 14.3125 C-38.4975 13.673125 -38.745 13.03375 -39 12.375 C-38.34 12.375 -37.68 12.375 -37 12.375 C-36.67 11.715 -36.34 11.055 -36 10.375 C-35.67 10.045 -35.34 9.715 -35 9.375 C-34.84337891 8.40433594 -34.84337891 8.40433594 -34.68359375 7.4140625 C-34 5.375 -34 5.375 -32.28515625 4.3984375 C-31.55167969 4.18445313 -30.81820312 3.97046875 -30.0625 3.75 C-29.35222656 3.53085938 -28.64195312 3.31171875 -27.91015625 3.0859375 C-26.94980469 2.85132812 -25.98945313 2.61671875 -25 2.375 C-24.00009033 2.11904053 -24.00009033 2.11904053 -22.97998047 1.85791016 C-15.35550709 0.09501701 -7.79549066 -0.01695261 0 0 Z " fill="#2B4487" transform="translate(190,82.625)"/>
<path d="M0 0 C0.33 0.66 0.66 1.32 1 2 C0.67 2.66 0.34 3.32 0 4 C-1.28614552 15.81951451 1.46307139 24.440133 8.75 33.75 C9.4925 34.4925 10.235 35.235 11 36 C11.66 36 12.32 36 13 36 C13.598125 36.763125 14.19625 37.52625 14.8125 38.3125 C17.0228194 41.02803527 18.93253932 42.38106242 22 44 C21.01 44.495 21.01 44.495 20 45 C5.77326731 40.14457572 -7.69049227 32.69645623 -15 19 C-15.8828125 16.97265625 -15.8828125 16.97265625 -16 15 C-14.63671875 12.859375 -14.63671875 12.859375 -12.6875 10.75 C-12.05199219 10.04359375 -11.41648438 9.3371875 -10.76171875 8.609375 C-9 7 -9 7 -7 7 C-6.6596875 6.1028125 -6.6596875 6.1028125 -6.3125 5.1875 C-4.66188867 2.43648112 -2.8027919 1.47515363 0 0 Z " fill="#0677B1" transform="translate(145,114)"/>
<path d="M0 0 C0.66 0 1.32 0 2 0 C2.08636719 0.60585937 2.17273438 1.21171875 2.26171875 1.8359375 C4.45278892 14.90195228 10.46357154 23.51212691 21.1328125 31.28125 C33.1953378 39.46922014 46.46629722 45.66854133 60 51 C56.42517427 52.19160858 55.80838433 51.76864337 52.46484375 50.3046875 C51.12583008 49.72460938 51.12583008 49.72460938 49.75976562 49.1328125 C48.82841797 48.71773437 47.89707031 48.30265625 46.9375 47.875 C46.03322266 47.483125 45.12894531 47.09125 44.19726562 46.6875 C38.02867551 43.98901741 31.9935734 41.06617743 26 38 C26 38.66 26 39.32 26 40 C20.77345932 39.52921237 17.19644167 37.57139875 12.9375 34.6875 C12.33873047 34.29626953 11.73996094 33.90503906 11.12304688 33.50195312 C1.23878159 26.97379106 1.23878159 26.97379106 -1.75 21.9375 C-2.15734375 21.26589844 -2.5646875 20.59429687 -2.984375 19.90234375 C-5.19546043 15.76081066 -5.77295468 11.60412136 -5 7 C-3.60311399 4.22707702 -2.07646823 2.37310654 0 0 Z " fill="#27407B" transform="translate(106,114)"/>
<path d="M0 0 C0.66 0.33 1.32 0.66 2 1 C1.67 1.99 1.34 2.98 1 4 C9.76694138 4.90858343 18.48497362 5.18630733 27.2902832 5.18530273 C29.43135353 5.18749371 31.5719104 5.20574503 33.71289062 5.22460938 C41.35477966 5.25430477 48.6843303 4.81952352 56.21972656 3.39428711 C60.33517458 2.81065095 63.91808507 3.30815001 68 4 C67.73828125 5.88671875 67.73828125 5.88671875 67 8 C65.29296875 9.08203125 65.29296875 9.08203125 63.1875 9.8125 C62.50042969 10.06644531 61.81335938 10.32039063 61.10546875 10.58203125 C59 11 59 11 57.06640625 10.515625 C54.35198312 9.83830203 52.4873321 10.36535272 49.75 10.9375 C34.78530138 13.4147643 19.13007368 12.57494356 4.16796875 10.4375 C1.03770679 9.93159864 1.03770679 9.93159864 -2 10 C-4.01151741 9.36893571 -6.01363702 8.70626239 -8 8 C-8 7.01 -8 6.02 -8 5 C-4.535 4.505 -4.535 4.505 -1 4 C-0.67 2.68 -0.34 1.36 0 0 Z " fill="#CECDCD" transform="translate(161,354)"/>
<path d="M0 0 C19.35365941 3.61836318 37.94795839 9.15571555 56 17 C56 20 56 20 54.3125 22.25 C52 24 52 24 49.68994141 23.74121094 C46.89761356 22.97178751 44.31877407 22.01213797 41.6484375 20.890625 C40.63136719 20.46523437 39.61429688 20.03984375 38.56640625 19.6015625 C37.51324219 19.15554687 36.46007812 18.70953125 35.375 18.25 C34.34503906 17.81945312 33.31507813 17.38890625 32.25390625 16.9453125 C26.26907404 14.43093016 20.34248514 11.81837822 14.45947266 9.07397461 C11.32826999 7.70667656 8.14505533 6.65559562 4.875 5.67578125 C3 5 3 5 0 3 C0 2.01 0 1.02 0 0 Z " fill="#53B4C8" transform="translate(189,221)"/>
<path d="M0 0 C7.21330414 1.94954166 13.81629324 5.87752882 20 10 C20 10.66 20 11.32 20 12 C20.928125 12.4640625 20.928125 12.4640625 21.875 12.9375 C23.25 13.625 24.625 14.3125 26 15 C25.75 16.875 25.75 16.875 25 19 C22.9375 20.25 22.9375 20.25 21 21 C20.34 20.34 19.68 19.68 19 19 C17.68 19 16.36 19 15 19 C15.99 20.32 16.98 21.64 18 23 C16.68 23.99 15.36 24.98 14 26 C13.19949219 25.03900391 13.19949219 25.03900391 12.3828125 24.05859375 C7.13841978 17.97038005 1.7944639 13.28377474 -5 9 C-4.175 8.236875 -3.35 7.47375 -2.5 6.6875 C0.34055197 4.24565858 0.34055197 4.24565858 0 1 C0 0.67 0 0.34 0 0 Z " fill="#0A8DBD" transform="translate(244,237)"/>
<path d="M0 0 C12.23404498 4.61283663 25.2863215 12.64850338 31.37109375 24.6484375 C32.52210434 28.95221624 31.35797465 32.85687988 30 37 C28.35 37 26.7 37 25 37 C25 38.65 25 40.3 25 42 C22.53199953 40.84826645 20.95216435 39.95216435 19 38 C19.33 37.01 19.66 36.02 20 35 C21.19072253 26.68195263 18.25016131 20.45009862 13.40234375 13.8125 C11.32790667 11.28436171 11.32790667 11.28436171 9 9 C8.34 9 7.68 9 7 9 C5.98648336 7.34151823 4.98879205 5.67334039 4 4 C2.70420353 2.63015802 1.38007251 1.2848951 0 0 Z " fill="#0675B0" transform="translate(212,238)"/>
<path d="M0 0 C-0.33 0.66 -0.66 1.32 -1 2 C0.32 2 1.64 2 3 2 C3 1.34 3 0.68 3 0 C7.88885774 -0.10015783 12.7770962 -0.17206449 17.66674805 -0.21972656 C19.32408066 -0.23963061 20.98134506 -0.26676414 22.63842773 -0.30175781 C32.93843744 -0.51355118 42.44952761 -0.44645615 52 4 C52.495 4.99 52.495 4.99 53 6 C51.7625 6.020625 50.525 6.04125 49.25 6.0625 C48.55390625 6.07410156 47.8578125 6.08570313 47.140625 6.09765625 C45 6 45 6 43.1396637 5.50198364 C40.89112101 4.97445604 38.93190691 4.87304963 36.62475586 4.87060547 C35.33576637 4.86587723 35.33576637 4.86587723 34.02073669 4.86105347 C32.63181969 4.86408981 32.63181969 4.86408981 31.21484375 4.8671875 C30.24454727 4.86623077 29.27425079 4.86527405 28.27455139 4.86428833 C26.21257462 4.86360747 24.15059571 4.8654552 22.08862305 4.86962891 C19.00108718 4.87489162 15.91370268 4.86972652 12.82617188 4.86328125 C3.25004741 4.85962017 -6.30574517 4.96520802 -15.87109375 5.4453125 C-16.66822281 5.48405487 -17.46535187 5.52279724 -18.28663635 5.56271362 C-22.27390479 5.72464488 -22.27390479 5.72464488 -26 7 C-25.25390625 5.07421875 -25.25390625 5.07421875 -24 3 C-22.15234375 2.20703125 -22.15234375 2.20703125 -19.9375 1.8125 C-19.14085937 1.66554688 -18.34421875 1.51859375 -17.5234375 1.3671875 C-14.30520134 0.89889927 -11.08765468 0.52609361 -7.84765625 0.24609375 C-1.84480234 -0.5534407 -1.84480234 -0.5534407 0 0 Z " fill="#D5D5D5" transform="translate(176,344)"/>
<path d="M0 0 C1.67542976 0.28604898 3.34385343 0.61781233 5 1 C5 1.66 5 2.32 5 3 C5.66 3.33 6.32 3.66 7 4 C6.25 5.9375 6.25 5.9375 5 8 C4.34 8.144375 3.68 8.28875 3 8.4375 C2.34 8.623125 1.68 8.80875 1 9 C0.67 9.825 0.34 10.65 0 11.5 C-0.33 12.325 -0.66 13.15 -1 14 C-3.125 14.8125 -3.125 14.8125 -5 15 C-5.33 16.32 -5.66 17.64 -6 19 C-7.32 19.33 -8.64 19.66 -10 20 C-10.10957031 20.59167969 -10.21914062 21.18335938 -10.33203125 21.79296875 C-11.44095889 25.45696943 -13.83883514 27.8998238 -17 30 C-20.375 29.875 -20.375 29.875 -23 29 C-23.625 27.125 -23.625 27.125 -24 25 C-23.34 24.34 -22.68 23.68 -22 23 C-21.21625 23.33 -20.4325 23.66 -19.625 24 C-17.15667503 25.11866511 -17.15667503 25.11866511 -15 25 C-15.66 23.35 -16.32 21.7 -17 20 C-16.01 20 -15.02 20 -14 20 C-13.62875 18.329375 -13.62875 18.329375 -13.25 16.625 C-12 13 -12 13 -9.875 11.5625 C-9.25625 11.376875 -8.6375 11.19125 -8 11 C-8.99 9.68 -9.98 8.36 -11 7 C-7.846632 6.29925156 -5.27275026 6 -2 6 C-1.855625 5.195625 -1.71125 4.39125 -1.5625 3.5625 C-1 1 -1 1 0 0 Z " fill="#0A87BB" transform="translate(227,196)"/>
<path d="M0 0 C0.91136719 -0.020625 1.82273438 -0.04125 2.76171875 -0.0625 C8.47383906 -0.09547039 12.42315177 0.59999681 17.5 3.25 C14.9144934 6.08174532 13.00965698 7.15925892 9.08325195 7.39526367 C5.99288907 7.41992717 2.90296898 7.43566153 -0.1875 7.4375 C-1.25162109 7.44974609 -2.31574219 7.46199219 -3.41210938 7.47460938 C-9.47344816 7.48584101 -14.69773076 7.02505939 -20.5 5.25 C-19.4375 3.3125 -19.4375 3.3125 -17.5 1.25 C-11.70990666 0.05231271 -5.89603235 0.03335803 0 0 Z " fill="#959394" transform="translate(189.5,350.75)"/>
<path d="M0 0 C3.465 1.485 3.465 1.485 7 3 C6.67 3.66 6.34 4.32 6 5 C5.01 5 4.02 5 3 5 C2.9175 5.763125 2.835 6.52625 2.75 7.3125 C1.83679543 10.58481639 0.76031312 11.15979125 -2 13 C-2.99 14.485 -2.99 14.485 -4 16 C-6.125 16.6875 -6.125 16.6875 -8 17 C-8.33 18.32 -8.66 19.64 -9 21 C-12.3 21 -15.6 21 -19 21 C-18.01 20.67 -17.02 20.34 -16 20 C-16 17.03 -16 14.06 -16 11 C-12 13 -12 13 -11 14 C-10.731875 13.21625 -10.46375 12.4325 -10.1875 11.625 C-9 9 -9 9 -6 7 C-6.66 5.68 -7.32 4.36 -8 3 C-6.865625 2.87625 -5.73125 2.7525 -4.5625 2.625 C-3.386875 2.41875 -2.21125 2.2125 -1 2 C-0.67 1.34 -0.34 0.68 0 0 Z " fill="#374777" transform="translate(242,94)"/>
<path d="M0 0 C3.12187831 -0.00221305 6.24341699 -0.02051521 9.36523438 -0.03930664 C11.37044152 -0.04223688 13.37565031 -0.04422415 15.38085938 -0.04516602 C16.76537292 -0.05594429 16.76537292 -0.05594429 18.17785645 -0.06694031 C23.37946179 -0.04858799 27.67429732 0.48875967 32.59960938 2.18530273 C32.59960938 2.84530273 32.59960938 3.50530273 32.59960938 4.18530273 C30.95628816 4.41260324 29.30965125 4.61594251 27.66210938 4.81030273 C26.74558594 4.92631836 25.8290625 5.04233398 24.88476562 5.16186523 C22.0524617 5.18207192 20.22142317 4.91034268 17.53710938 4.22045898 C11.5599961 2.77729783 5.65534261 2.92870653 -0.46289062 2.99780273 C-2.24566406 3.00855835 -2.24566406 3.00855835 -4.06445312 3.01953125 C-18.93117265 2.6535654 -18.93117265 2.6535654 -33.40039062 5.18530273 C-33.73039063 4.52530273 -34.06039062 3.86530273 -34.40039062 3.18530273 C-35.72039062 3.51530273 -37.04039062 3.84530273 -38.40039062 4.18530273 C-36.59849664 1.82170235 -35.62021505 1.22570934 -32.65234375 0.68017578 C-31.50701172 0.62385986 -30.36167969 0.56754395 -29.18164062 0.50952148 C-28.5348938 0.47670578 -27.88814697 0.44389008 -27.22180176 0.41007996 C-18.1558301 0.00528833 -9.07322731 -0.00072101 0 0 Z " fill="#B7B5B6" transform="translate(191.400390625,347.814697265625)"/>
<path d="M0 0 C11.32549321 3.16220144 22.29437658 12.52370141 29 22 C32.67080993 28.67147199 34.09345441 34.53506114 32.25 42.0625 C30.84664674 45.36038016 29.07430867 48.08300343 27 51 C26.34 51.99 25.68 52.98 25 54 C24.01 54 23.02 54 22 54 C23.00285612 51.30000274 24.05962493 48.90221511 25.5625 46.4375 C28.71401002 41.09363518 28.70778774 35.04911615 28 29 C26.8184638 25.60446373 25.11136455 22.89662575 23 20 C22.47664063 19.27167969 21.95328125 18.54335938 21.4140625 17.79296875 C16.27632731 11.38762641 9.86343066 7.30075834 3 2.96875 C2.01 2.3190625 1.02 1.669375 0 1 C0 0.67 0 0.34 0 0 Z " fill="#192D53" transform="translate(230,241)"/>
<path d="M0 0 C4.56446005 0.6307891 8.37228095 2.43714112 12.4375 4.5 C13.13109619 4.84949707 13.82469238 5.19899414 14.53930664 5.55908203 C19.48745335 8.10429308 24.25115595 10.87632875 28.9375 13.875 C29.53425537 14.25591797 30.13101074 14.63683594 30.74584961 15.02929688 C34.86836443 17.73672886 34.86836443 17.73672886 36 20 C32.0397664 18.71186343 28.16026025 17.31166474 24.296875 15.7578125 C23.23339844 15.33113281 22.16992188 14.90445313 21.07421875 14.46484375 C19.42873047 13.80162109 19.42873047 13.80162109 17.75 13.125 C16.66847656 12.69058594 15.58695313 12.25617188 14.47265625 11.80859375 C12.33893008 10.95149988 10.20546007 10.09376798 8.07226562 9.23535156 C3.71725094 7.48420929 -0.64107 5.74136928 -5 4 C-4.67 3.01 -4.34 2.02 -4 1 C-3.01 1.33 -2.02 1.66 -1 2 C-0.67 1.34 -0.34 0.68 0 0 Z " fill="#97999B" transform="translate(237,185)"/>
<path d="M0 0 C1.65 0 3.3 0 5 0 C5 0.99 5 1.98 5 3 C5.66 3 6.32 3 7 3 C6.75 5.375 6.75 5.375 6 8 C4.25 9 4.25 9 2 10 C-1.68262864 13.39934952 -4.84349241 17.12200496 -8 21 C-9.70754834 18.02534237 -10.27317355 15.86139168 -10.25 12.4375 C-10.25773437 11.29087891 -10.25773437 11.29087891 -10.265625 10.12109375 C-10 8 -10 8 -8 5 C-5.66666667 5 -3.33333333 5 -1 5 C-0.67 3.35 -0.34 1.7 0 0 Z " fill="#1E599E" transform="translate(138,108)"/>
<path d="M0 0 C0 0.66 0 1.32 0 2 C-5.51276102 4.12993039 -5.51276102 4.12993039 -7.875 3.5 C-10.61776236 2.85464415 -12.49198934 3.36103056 -15.25 3.9375 C-28.88347947 6.19439356 -43.24046876 5.6667345 -56.9375 4.125 C-58.00145996 4.00753418 -58.00145996 4.00753418 -59.08691406 3.88769531 C-60.73695228 3.67095652 -62.37226137 3.34650941 -64 3 C-64.33 2.34 -64.66 1.68 -65 1 C-64.39802292 1.00222061 -63.79604584 1.00444122 -63.17582703 1.00672913 C-56.86453856 1.02899189 -50.55326139 1.04399348 -44.24194336 1.05493164 C-41.89200385 1.05993529 -39.54206741 1.06674027 -37.19213867 1.07543945 C-33.79865761 1.08767989 -30.405218 1.09326815 -27.01171875 1.09765625 C-25.97480392 1.10281754 -24.9378891 1.10797882 -23.86955261 1.11329651 C-17.98889304 1.11374059 -12.22349342 0.83611117 -6.37458801 0.21531677 C-4 0 -4 0 0 0 Z " fill="#E1E0E0" transform="translate(226,361)"/>
<path d="M0 0 C1.32 0.33 2.64 0.66 4 1 C4 1.66 4 2.32 4 3 C7.3863251 4.50930183 7.3863251 4.50930183 11 5 C10.67 4.34 10.34 3.68 10 3 C11.65 3 13.3 3 15 3 C13.8141763 6.37503669 12.72426311 8.64722731 10 11 C10 10.34 10 9.68 10 9 C8.68121422 9.76002917 7.3701316 10.53343653 6.0625 11.3125 C5.33160156 11.74175781 4.60070312 12.17101562 3.84765625 12.61328125 C1.70022588 13.95110254 1.70022588 13.95110254 1 17 C0.34 17 -0.32 17 -1 17 C-1.4125 15.88625 -1.825 14.7725 -2.25 13.625 C-3.35546516 11.00679305 -3.74880787 10.16506911 -6.1875 8.5625 C-6.785625 8.376875 -7.38375 8.19125 -8 8 C-7.05125 7.4225 -6.1025 6.845 -5.125 6.25 C-2.23865902 4.17183449 -1.15904259 3.24531925 0 0 Z " fill="#2E4990" transform="translate(228,279)"/>
<path d="M0 0 C0.66 0 1.32 0 2 0 C2.08636719 0.60585937 2.17273438 1.21171875 2.26171875 1.8359375 C4.45278892 14.90195228 10.46357154 23.51212691 21.1328125 31.28125 C33.1953378 39.46922014 46.46629722 45.66854133 60 51 C56.44097584 52.18634139 55.83152644 51.78352774 52.5 50.33984375 C51.61812012 49.96142334 50.73624023 49.58300293 49.82763672 49.19311523 C48.42795654 48.57158569 48.42795654 48.57158569 47 47.9375 C46.04754395 47.51992432 45.09508789 47.10234863 44.11376953 46.67211914 C27.61149577 39.35768168 8.69731906 29.80909157 0.796875 12.57421875 C-0.50496574 8.36876263 -0.41630808 4.34810664 0 0 Z " fill="#22395E" transform="translate(106,114)"/>
<path d="M0 0 C0.66 0.33 1.32 0.66 2 1 C2.05437607 2.58294782 2.09296271 4.16644256 2.125 5.75 C2.14820313 6.63171875 2.17140625 7.5134375 2.1953125 8.421875 C1.9887466 11.14854489 1.49071432 12.72251979 0 15 C-2.125 15.75 -2.125 15.75 -4 16 C-4 16.99 -4 17.98 -4 19 C-7.465 17.02 -7.465 17.02 -11 15 C-11 14.34 -11 13.68 -11 13 C-11.99 12.67 -12.98 12.34 -14 12 C-12.68 11.34 -11.36 10.68 -10 10 C-8.68 10.99 -7.36 11.98 -6 13 C-6 11.35 -6 9.7 -6 8 C-4.68 7.67 -3.36 7.34 -2 7 C-1.34 4.69 -0.68 2.38 0 0 Z " fill="#25569D" transform="translate(243,267)"/>
<path d="M0 0 C0.99 0.33 1.98 0.66 3 1 C3.94921875 3.06640625 3.94921875 3.06640625 4.6875 5.5625 C5.06455078 6.80193359 5.06455078 6.80193359 5.44921875 8.06640625 C5.63097656 8.70449219 5.81273437 9.34257812 6 10 C2.25 13 2.25 13 0 13 C-0.33 14.65 -0.66 16.3 -1 18 C-3.64 16.35 -6.28 14.7 -9 13 C-8.01 12.01 -7.02 11.02 -6 10 C-5.01 10 -4.02 10 -3 10 C-2.34 8.35 -1.68 6.7 -1 5 C-0.34 5 0.32 5 1 5 C0.34 3.68 -0.32 2.36 -1 1 C-0.67 0.67 -0.34 0.34 0 0 Z " fill="#304379" transform="translate(273,236)"/>
<path d="M0 0 C4.85227854 1.82697127 9.46148257 4.12179872 14.125 6.375 C20.95997526 9.65146923 27.77153791 12.67714589 35 15 C31.7188669 16.0983454 29.89013929 15.90669724 26.65625 14.7421875 C25.82706055 14.44836182 24.99787109 14.15453613 24.14355469 13.85180664 C23.27118164 13.52946045 22.39880859 13.20711426 21.5 12.875 C20.16437012 12.3943811 20.16437012 12.3943811 18.80175781 11.90405273 C12.11274902 9.47361583 5.51272807 6.87248372 -1 4 C-0.34 3.67 0.32 3.34 1 3 C0.67 2.01 0.34 1.02 0 0 Z " fill="#0C5EA1" transform="translate(131,151)"/>
<path d="M0 0 C0.66 0.33 1.32 0.66 2 1 C1.67 1.99 1.34 2.98 1 4 C9.76694138 4.90858343 18.48497362 5.18630733 27.2902832 5.18530273 C29.43135353 5.18749371 31.5719104 5.20574503 33.71289062 5.22460938 C41.40680847 5.25394885 48.76550074 4.80016977 56.34790039 3.33325195 C58.93945576 3.00760774 60.55093356 3.16835833 63 4 C55.38437514 6.33131373 48.11732601 7.15336796 40.171875 7.1328125 C39.34222229 7.13376923 38.51256958 7.13472595 37.65777588 7.13571167 C35.90970788 7.13638898 34.16163731 7.13456619 32.41357422 7.13037109 C29.77175072 7.12504386 27.13009934 7.13031733 24.48828125 7.13671875 C15.9443358 7.13974294 7.49318392 7.06346484 -1 6 C-0.67 4.02 -0.34 2.04 0 0 Z " fill="#BDBBBC" transform="translate(161,354)"/>
<path d="M0 0 C1.32 0 2.64 0 4 0 C5.42770882 4.95498944 6.19925578 7.96312574 5 13 C4.9020676 16.33485593 4.94171041 19.66454036 5 23 C2.69 22.67 0.38 22.34 -2 22 C-1.34 21.34 -0.68 20.68 0 20 C0.27744961 17.71747638 0.45029678 15.42158503 0.5625 13.125 C0.95585795 5.43445071 0.95585795 5.43445071 2 2 C1.34 2 0.68 2 0 2 C0 1.34 0 0.68 0 0 Z " fill="#4FBAD0" transform="translate(145,278)"/>
<path d="M0 0 C6.93 0 13.86 0 21 0 C21 0.99 21 1.98 21 3 C17.29553447 4.23482184 13.8556992 4.14558202 10 4.125 C9.27554688 4.12886719 8.55109375 4.13273437 7.8046875 4.13671875 C4.60717121 4.13081927 2.05417393 4.01805798 -1 3 C-0.67 2.01 -0.34 1.02 0 0 Z " fill="#6B696A" transform="translate(178,353)"/>
<path d="M0 0 C3.91762791 1.45738644 7.44670211 3.28140274 11.0625 5.375 C12.08472656 5.96023437 13.10695312 6.54546875 14.16015625 7.1484375 C16.82307766 8.88464761 18.85703446 10.66689123 21 13 C19.35 14.32 17.7 15.64 16 17 C15.27683594 16.13375 15.27683594 16.13375 14.5390625 15.25 C13.90742188 14.5075 13.27578125 13.765 12.625 13 C11.99851563 12.2575 11.37203125 11.515 10.7265625 10.75 C9.87191406 9.88375 9.87191406 9.88375 9 9 C8.34 9 7.68 9 7 9 C5.98648336 7.34151823 4.98879205 5.67334039 4 4 C2.70420353 2.63015802 1.38007251 1.2848951 0 0 Z " fill="#2BA9C9" transform="translate(212,238)"/>
<path d="M0 0 C6.0509304 1.16554807 12.03466226 2.45343096 18 4 C19.125 7.75 19.125 7.75 18 10 C16 9.33333333 14 8.66666667 12 8 C10.86304688 7.63841797 10.86304688 7.63841797 9.703125 7.26953125 C8.91421875 7.01558594 8.1253125 6.76164063 7.3125 6.5 C6.19294922 6.14421875 6.19294922 6.14421875 5.05078125 5.78125 C3 5 3 5 0 3 C0 2.01 0 1.02 0 0 Z " fill="#6FC4CD" transform="translate(189,221)"/>
<path d="M0 0 C3.24446326 2.69053051 6.47765829 5.39321983 9.6875 8.125 C10.24824219 8.60195312 10.80898437 9.07890625 11.38671875 9.5703125 C12.98921007 10.99043798 14.50219182 12.47051611 16 14 C8.55620912 11.76686274 1.88023305 8.59727921 -5 5 C-3.35 3.35 -1.7 1.7 0 0 Z " fill="#2CA7C8" transform="translate(151,145)"/>
<path d="M0 0 C4.94381496 -0.07481328 9.88729189 -0.12891154 14.83154297 -0.16479492 C16.50933583 -0.17977234 18.18709028 -0.20016154 19.86474609 -0.22631836 C37.74749787 -0.49791465 37.74749787 -0.49791465 46 3 C42.87729368 3.96245039 40.49404818 3.98523402 37.26171875 3.59765625 C29.79165504 2.82369156 22.31410001 2.64985032 14.8125 2.4375 C13.36913147 2.39418434 11.92577197 2.35056654 10.48242188 2.30664062 C6.98837827 2.20095142 3.49423102 2.09932418 0 2 C0 1.34 0 0.68 0 0 Z " fill="#E2E1E1" transform="translate(179,344)"/>
<path d="M0 0 C4.89155369 1.36577523 8.73368046 3.54781381 12.8125 6.5 C13.42053467 6.93707275 14.02856934 7.37414551 14.6550293 7.82446289 C20.68913435 12.29514625 27.56781057 17.7034317 30 25 C29.34 25 28.68 25 28 25 C27.67 25.66 27.34 26.32 27 27 C26.68289063 26.38253906 26.36578125 25.76507813 26.0390625 25.12890625 C20.29547165 14.70476484 12.15448931 8.35559471 2.0546875 2.3125 C1.37664062 1.879375 0.69859375 1.44625 0 1 C0 0.67 0 0.34 0 0 Z " fill="#1E3659" transform="translate(230,241)"/>
<path d="M0 0 C0.99 0.33 1.98 0.66 3 1 C3.87890625 2.82421875 3.87890625 2.82421875 4 5 C2.18297894 7.90839474 -0.16880738 10.0792301 -3 12 C-6.4375 11.9375 -6.4375 11.9375 -9 11 C-9.625 9.125 -9.625 9.125 -10 7 C-9.34 6.34 -8.68 5.68 -8 5 C-6.824375 5.495 -6.824375 5.495 -5.625 6 C-3.15667503 7.11866511 -3.15667503 7.11866511 -1 7 C-1.66 5.35 -2.32 3.7 -3 2 C-2.01 2 -1.02 2 0 2 C0 1.34 0 0.68 0 0 Z " fill="#129EC5" transform="translate(213,214)"/>
<path d="M0 0 C1.65 0 3.3 0 5 0 C5.33 1.32 5.66 2.64 6 4 C0.25 7.875 0.25 7.875 -2 9 C-2.99 8.67 -3.98 8.34 -5 8 C-5.66 9.32 -6.32 10.64 -7 12 C-7.33 11.34 -7.66 10.68 -8 10 C-8.66 10.99 -9.32 11.98 -10 13 C-9.67 10.36 -9.34 7.72 -9 5 C-8.01 5.33 -7.02 5.66 -6 6 C-3.36195411 5.60602665 -3.36195411 5.60602665 -1 5 C-0.67 3.35 -0.34 1.7 0 0 Z " fill="#27529B" transform="translate(138,108)"/>
<path d="M0 0 C-5.18281963 5.18281963 -14.80983965 5.36874213 -21.78515625 5.7890625 C-24.03933586 5.86950156 -24.03933586 5.86950156 -26 7 C-25.25390625 5.07421875 -25.25390625 5.07421875 -24 3 C-22.15234375 2.20703125 -22.15234375 2.20703125 -19.9375 1.8125 C-19.14085937 1.66554688 -18.34421875 1.51859375 -17.5234375 1.3671875 C-14.30520134 0.89889927 -11.08765468 0.52609361 -7.84765625 0.24609375 C-1.84480234 -0.5534407 -1.84480234 -0.5534407 0 0 Z " fill="#DCDBDC" transform="translate(176,344)"/>
<path d="M0 0 C0.33 0.66 0.66 1.32 1 2 C1.886875 1.814375 2.77375 1.62875 3.6875 1.4375 C6.85178811 1.01957516 8.94839642 1.19222258 12 2 C12.33 1.34 12.66 0.68 13 0 C12.44449305 3.59905908 11.25112752 4.99909799 8.4375 7.25 C7.79683594 7.77078125 7.15617188 8.2915625 6.49609375 8.828125 C5.75552734 9.40820312 5.75552734 9.40820312 5 10 C4.34 9.01 3.68 8.02 3 7 C3.66 6.01 4.32 5.02 5 4 C3.35 4.33 1.7 4.66 0 5 C-0.5625 3.0625 -0.5625 3.0625 -1 1 C-0.67 0.67 -0.34 0.34 0 0 Z " fill="#2B4E96" transform="translate(144,100)"/>
<path d="M0 0 C7.17480397 1.30858751 14.1296512 3.07159003 21.125 5.125 C22.08148438 5.40214844 23.03796875 5.67929688 24.0234375 5.96484375 C26.35005287 6.63956221 28.67551422 7.3179883 31 8 C30.67 8.66 30.34 9.32 30 10 C22.99971056 9.47497829 17.03751623 7.4212414 10.5 4.9375 C8.98019531 4.37192383 8.98019531 4.37192383 7.4296875 3.79492188 C4.95013886 2.87093913 2.47382599 1.9391731 0 1 C0 0.67 0 0.34 0 0 Z " fill="#71C5D4" transform="translate(141,209)"/>
<path d="M0 0 C3.02107902 -0.0543251 6.04116528 -0.09382927 9.0625 -0.125 C9.91005859 -0.14175781 10.75761719 -0.15851563 11.63085938 -0.17578125 C16.83418201 -0.21596135 21.07469821 0.30254185 26 2 C26 2.66 26 3.32 26 4 C19.97258105 4.16589226 14.42505207 3.57114133 8.5 2.5 C7.67757812 2.35691406 6.85515625 2.21382813 6.0078125 2.06640625 C4.00415373 1.71693088 2.00191702 1.35931844 0 1 C0 0.67 0 0.34 0 0 Z " fill="#C2C1C2" transform="translate(198,348)"/>
<path d="M0 0 C3.68754757 0.49831724 5.60490662 1.10067643 8 4 C7.01 5.32 6.02 6.64 5 8 C0.05 6.02 0.05 6.02 -5 4 C-4.67 3.01 -4.34 2.02 -4 1 C-3.01 1.33 -2.02 1.66 -1 2 C-0.67 1.34 -0.34 0.68 0 0 Z " fill="#898E91" transform="translate(237,185)"/>
<path d="M0 0 C2.64 0.33 5.28 0.66 8 1 C8 1.66 8 2.32 8 3 C8.66 3.66 9.32 4.32 10 5 C2.53894572 7.00965831 -4.36033101 7.24055476 -12.0625 7.125 C-13.21427734 7.11597656 -14.36605469 7.10695313 -15.55273438 7.09765625 C-18.36871193 7.07428714 -21.18424158 7.04152565 -24 7 C-24 6.67 -24 6.34 -24 6 C-22.94872925 5.970271 -22.94872925 5.970271 -21.8762207 5.93994141 C-18.68794838 5.84443834 -15.50030853 5.73486129 -12.3125 5.625 C-10.65831055 5.57859375 -10.65831055 5.57859375 -8.97070312 5.53125 C-7.90400391 5.49257813 -6.83730469 5.45390625 -5.73828125 5.4140625 C-4.75899658 5.3826416 -3.77971191 5.3512207 -2.77075195 5.31884766 C0.12422801 4.98570431 2.35772167 4.20199413 5 3 C3.35 2.34 1.7 1.68 0 1 C0 0.67 0 0.34 0 0 Z " fill="#9A9899" transform="translate(201,352)"/>
<path d="M0 0 C1.65 0.99 3.3 1.98 5 3 C4.6478759 5.64093077 4.34271564 6.71848358 2.25 8.4375 C0 9 0 9 -2.75 7.875 C-3.86375 6.946875 -3.86375 6.946875 -5 6 C-5 4.68 -5 3.36 -5 2 C-3.68 2 -2.36 2 -1 2 C-0.67 1.34 -0.34 0.68 0 0 Z " fill="#0D7BB5" transform="translate(265,249)"/>
<path d="M0 0 C4.38894929 3.26720791 8.75259665 6.54898478 13 10 C12.67 10.99 12.34 11.98 12 13 C11.01 13.33 10.02 13.66 9 14 C7.86756424 12.61019248 6.74436881 11.21285323 5.625 9.8125 C4.99851562 9.03519531 4.37203125 8.25789063 3.7265625 7.45703125 C2.02192866 5.03120618 0.98012094 2.78690955 0 0 Z " fill="#38B1CE" transform="translate(85,250)"/>
<path d="M0 0 C2.625 0.375 2.625 0.375 5 1 C5 2.98 5 4.96 5 7 C3.35 7.66 1.7 8.32 0 9 C0 8.34 0 7.68 0 7 C-0.66 7 -1.32 7 -2 7 C-2.125 4.625 -2.125 4.625 -2 2 C-1.34 1.34 -0.68 0.68 0 0 Z " fill="#0A96C3" transform="translate(216,208)"/>
<path d="M0 0 C3.37492629 -0.05845196 6.74972087 -0.09374742 10.125 -0.125 C11.07632813 -0.14175781 12.02765625 -0.15851563 13.0078125 -0.17578125 C18.08583255 -0.21104528 22.24487525 -0.03333617 27 2 C26 3.5 26 3.5 24 5 C21.28153765 5.27345479 18.74322801 5.13491285 16 5 C16.99 4.01 17.98 3.02 19 2 C12.73 1.67 6.46 1.34 0 1 C0 0.67 0 0.34 0 0 Z " fill="#807E7F" transform="translate(180,352)"/>
<path d="M0 0 C0.67958771 0.02502594 1.35917542 0.05005188 2.05935669 0.07583618 C4.20940044 0.15737687 6.35843242 0.2542139 8.5078125 0.3515625 C9.97391829 0.40986984 11.44006444 0.46717157 12.90625 0.5234375 C16.48231151 0.6628544 20.05763137 0.81598717 23.6328125 0.9765625 C23.6328125 1.3065625 23.6328125 1.6365625 23.6328125 1.9765625 C11.4228125 2.3065625 -0.7871875 2.6365625 -13.3671875 2.9765625 C-13.3671875 2.6465625 -13.3671875 2.3165625 -13.3671875 1.9765625 C-8.69979723 0.13599002 -4.99703795 -0.20648917 0 0 Z " fill="#CBCBCB" transform="translate(176.3671875,346.0234375)"/>
<path d="M0 0 C0.66 0 1.32 0 2 0 C2.12117188 0.66386719 2.24234375 1.32773438 2.3671875 2.01171875 C3.40049974 7.55012029 3.40049974 7.55012029 5.1875 12.875 C6.1388498 15.36314562 5.91147007 16.53903081 5 19 C-0.02388736 12.83432006 -0.26956487 7.71255046 0 0 Z " fill="#13254C" transform="translate(106,114)"/>
<path d="M0 0 C1.65 0 3.3 0 5 0 C4.67 0.99 4.34 1.98 4 3 C11.92 3.33 19.84 3.66 28 4 C28 4.33 28 4.66 28 5 C24.0833957 5.0580966 20.16690237 5.09362893 16.25 5.125 C15.13882813 5.14175781 14.02765625 5.15851563 12.8828125 5.17578125 C11.27792969 5.18544922 11.27792969 5.18544922 9.640625 5.1953125 C8.65610352 5.20578613 7.67158203 5.21625977 6.65722656 5.22705078 C3.94026889 4.99489618 2.31887487 4.39036273 0 3 C0 2.01 0 1.02 0 0 Z " fill="#8C8A8B" transform="translate(173,353)"/>
<path d="M0 0 C4 1.33333333 8 2.66666667 12 4 C11.25 5.9375 11.25 5.9375 10 8 C7.875 8.75 7.875 8.75 6 9 C6 8.34 6 7.68 6 7 C6.66 7 7.32 7 8 7 C7.67 6.34 7.34 5.68 7 5 C5.35 5 3.7 5 2 5 C1.34 3.35 0.68 1.7 0 0 Z " fill="#1676AE" transform="translate(230,188)"/>
<path d="M0 0 C5.4367976 0.55852667 9.9183367 1.93957617 14.9375 4.0625 C15.62134766 4.34416016 16.30519531 4.62582031 17.00976562 4.91601562 C18.67613946 5.6035405 20.33850727 6.30076175 22 7 C18.74004193 8.08557892 16.89457573 7.91310151 13.671875 6.78515625 C12.87265625 6.51123047 12.0734375 6.23730469 11.25 5.95507812 C10.425 5.66052734 9.6 5.36597656 8.75 5.0625 C7.90953125 4.77181641 7.0690625 4.48113281 6.203125 4.18164062 C4.13194269 3.46378767 2.06466738 2.73633881 0 2 C0 1.34 0 0.68 0 0 Z " fill="#0988B8" transform="translate(144,159)"/>
<path d="M0 0 C2.13745922 0.25146579 3.45925779 0.45925779 5 2 C5.04063832 3.66617115 5.042721 5.33388095 5 7 C-0.75 5.25 -0.75 5.25 -3 3 C-1.75 1.4375 -1.75 1.4375 0 0 Z " fill="#7BCCD5" transform="translate(133,291)"/>
<path d="M0 0 C1.32 0.33 2.64 0.66 4 1 C4 3.64 4 6.28 4 9 C2.02 8.34 0.04 7.68 -2 7 C-2 3.89448334 -1.4606285 2.64738916 0 0 Z " fill="#204892" transform="translate(228,279)"/>
<path d="M0 0 C0 1.32 0 2.64 0 4 C-4 4 -4 4 -7 3 C-7 2.01 -7 1.02 -7 0 C-4.3333581 -1.33332095 -2.83319697 -0.67102033 0 0 Z " fill="#D5D4D4" transform="translate(160,359)"/>
<path d="M0 0 C6.40140935 0.46555704 11.26769829 2.14711836 17 5 C17 5.33 17 5.66 17 6 C10.81839396 5.46246904 5.673142 3.45417612 0 1 C0 0.67 0 0.34 0 0 Z " fill="#94A0A2" transform="translate(168,219)"/>
<path d="M0 0 C1.32 0.66 2.64 1.32 4 2 C2.515 4.475 2.515 4.475 1 7 C-0.32 6.34 -1.64 5.68 -3 5 C-3 4.01 -3 3.02 -3 2 C-2.01 1.34 -1.02 0.68 0 0 Z " fill="#51BDD3" transform="translate(98,261)"/>
<path d="M0 0 C3.465 1.485 3.465 1.485 7 3 C5.35 4.65 3.7 6.3 2 8 C0.68 6.02 -0.64 4.04 -2 2 C-1.34 1.34 -0.68 0.68 0 0 Z " fill="#119CC4" transform="translate(226,247)"/>
<path d="M0 0 C4.96916636 0.51405169 9.29026351 1.23384882 14 3 C13.34 4.32 12.68 5.64 12 7 C11.34 5.68 10.68 4.36 10 3 C8.35 3.66 6.7 4.32 5 5 C4.34 4.01 3.68 3.02 3 2 C2.01 1.34 1.02 0.68 0 0 Z " fill="#4FB9D0" transform="translate(163,167)"/>
<path d="M0 0 C4.62 0 9.24 0 14 0 C13.01 1.485 13.01 1.485 12 3 C8.375 3.1875 8.375 3.1875 5 3 C5 2.34 5 1.68 5 1 C3.35 1 1.7 1 0 1 C0 0.67 0 0.34 0 0 Z " fill="#E0DFE0" transform="translate(163,81)"/>
<path d="M0 0 C5.61 0 11.22 0 17 0 C17 0.99 17 1.98 17 3 C16.34 2.67 15.68 2.34 15 2 C12.795636 1.77049681 10.58607827 1.58924067 8.375 1.4375 C7.18648437 1.35371094 5.99796875 1.26992188 4.7734375 1.18359375 C3.85820312 1.12300781 2.94296875 1.06242187 2 1 C2 1.66 2 2.32 2 3 C1.01 3 0.02 3 -1 3 C-0.67 2.01 -0.34 1.02 0 0 Z " fill="#6B696A" transform="translate(182,353)"/>
<path d="M0 0 C-4.95 1.485 -4.95 1.485 -10 3 C-10 3.66 -10 4.32 -10 5 C-11.32 4.34 -12.64 3.68 -14 3 C-14 2.34 -14 1.68 -14 1 C-12.41913952 0.63495397 -10.83516093 0.28339494 -9.25 -0.0625 C-8.36828125 -0.25972656 -7.4865625 -0.45695312 -6.578125 -0.66015625 C-4 -1 -4 -1 0 0 Z " fill="#475A91" transform="translate(179,84)"/>
<path d="M0 0 C0.99386719 0.02707031 1.98773438 0.05414063 3.01171875 0.08203125 C4.15060547 0.13423828 4.15060547 0.13423828 5.3125 0.1875 C5.3125 0.5175 5.3125 0.8475 5.3125 1.1875 C2.3125 2.1875 -0.6875 3.1875 -3.6875 4.1875 C-4.0175 3.5275 -4.3475 2.8675 -4.6875 2.1875 C-6.0075 2.5175 -7.3275 2.8475 -8.6875 3.1875 C-6.10291354 -0.17334451 -4.11082043 -0.14508778 0 0 Z " fill="#C5C4C4" transform="translate(161.6875,348.8125)"/>
<path d="M0 0 C2.46278801 1.231394 3.42497687 2.78064923 5 5 C3.68 5.99 2.36 6.98 1 8 C0.01 6.35 -0.98 4.7 -2 3 C-1.34 2.01 -0.68 1.02 0 0 Z " fill="#0874AD" transform="translate(257,255)"/>
<path d="M0 0 C0.99 0.33 1.98 0.66 3 1 C3.99 1 4.98 1 6 1 C5.01 2.98 4.02 4.96 3 7 C2.34 6.34 1.68 5.68 1 5 C0.34 5.99 -0.32 6.98 -1 8 C-0.67 5.36 -0.34 2.72 0 0 Z " fill="#3E5D9F" transform="translate(129,113)"/>
<path d="M0 0 C1.34173403 0.92543709 2.67320159 1.86577405 4 2.8125 C5.11375 3.59560547 5.11375 3.59560547 6.25 4.39453125 C6.8275 4.92433594 7.405 5.45414063 8 6 C8 6.99 8 7.98 8 9 C6.25 8.875 6.25 8.875 4 8 C0 2.77777778 0 2.77777778 0 0 Z " fill="#30A7CA" transform="translate(85,250)"/>
<path d="M0 0 C1.65 0.99 3.3 1.98 5 3 C4.67 4.32 4.34 5.64 4 7 C1.525 6.01 1.525 6.01 -1 5 C-0.67 3.35 -0.34 1.7 0 0 Z " fill="#0B72AE" transform="translate(265,249)"/>
<path d="M0 0 C3.7910119 1.44950455 7.3874638 3.15172566 11 5 C10.01 5.33 9.02 5.66 8 6 C7.67 6.99 7.34 7.98 7 9 C6.5875 8.2575 6.175 7.515 5.75 6.75 C4.06254382 4.09828315 2.29127911 2.13325986 0 0 Z " fill="#5AB5CB" transform="translate(212,238)"/>
<path d="M0 0 C1.32 0.66 2.64 1.32 4 2 C3.67 3.32 3.34 4.64 3 6 C1.68 5.67 0.36 5.34 -1 5 C-0.67 3.35 -0.34 1.7 0 0 Z " fill="#28A9CB" transform="translate(204,219)"/>
<path d="M0 0 C4.455 2.97 4.455 2.97 9 6 C8.01 6.495 8.01 6.495 7 7 C5.0546875 6.22265625 5.0546875 6.22265625 2.875 5.0625 C2.15054687 4.68222656 1.42609375 4.30195313 0.6796875 3.91015625 C0.12539063 3.60980469 -0.42890625 3.30945313 -1 3 C-0.67 2.01 -0.34 1.02 0 0 Z " fill="#A3A5A9" transform="translate(264,198)"/>
<path d="M0 0 C1.65 0 3.3 0 5 0 C4.49396008 2.16874252 4.00016187 3.99967627 3 6 C2.01 5.67 1.02 5.34 0 5 C0 3.35 0 1.7 0 0 Z " fill="#1B569C" transform="translate(239,274)"/>
<path d="M0 0 C0.69609375 0.48726562 1.3921875 0.97453125 2.109375 1.4765625 C2.81578125 1.95867187 3.5221875 2.44078125 4.25 2.9375 C4.78109375 3.32164062 5.3121875 3.70578125 5.859375 4.1015625 C3.859375 5.1015625 3.859375 5.1015625 1.4765625 4.32421875 C0.57164062 3.94136719 -0.33328125 3.55851563 -1.265625 3.1640625 C-2.63074219 2.59365234 -2.63074219 2.59365234 -4.0234375 2.01171875 C-4.72210938 1.71136719 -5.42078125 1.41101563 -6.140625 1.1015625 C-2.74018736 -1.15007864 -2.74018736 -1.15007864 0 0 Z " fill="#76CAD9" transform="translate(161.140625,153.8984375)"/>
<path d="M0 0 C0.99 0.33 1.98 0.66 3 1 C5.33183607 1.67188497 7.66501142 2.33915417 10 3 C10 3.33 10 3.66 10 4 C6.7 4 3.4 4 0 4 C0 2.68 0 1.36 0 0 Z " fill="#A09E9E" transform="translate(167,354)"/>
<path d="M0 0 C-2.6855594 2.6855594 -5.37621328 3.06049974 -9 4 C-9.33 3.01 -9.66 2.02 -10 1 C-3.71428571 -1.42857143 -3.71428571 -1.42857143 0 0 Z " fill="#E2E2E2" transform="translate(176,344)"/>
<path d="M0 0 C0.66 0.33 1.32 0.66 2 1 C2 4.3 2 7.6 2 11 C1.67 9.68 1.34 8.36 1 7 C0.34 7 -0.32 7 -1 7 C-0.67 4.69 -0.34 2.38 0 0 Z " fill="#2A6CA6" transform="translate(243,267)"/>
<path d="M0 0 C0.33 1.32 0.66 2.64 1 4 C-1.875 4.125 -1.875 4.125 -5 4 C-5.66 3.34 -6.32 2.68 -7 2 C-4.35261084 0.5393715 -3.10551666 0 0 0 Z " fill="#4DB4CD" transform="translate(158,150)"/>
<path d="M0 0 C1.41750563 0.11509661 2.83401169 0.24253658 4.25 0.375 C5.03890625 0.44460937 5.8278125 0.51421875 6.640625 0.5859375 C9.085877 1.01507113 10.84836903 1.78600638 13 3 C4.80743982 3.4726477 4.80743982 3.4726477 1.4375 1.5 C0.963125 1.005 0.48875 0.51 0 0 Z " fill="#384B82" transform="translate(211,85)"/>
<path d="M0 0 C0 0.33 0 0.66 0 1 C-1.98 1 -3.96 1 -6 1 C-6 1.66 -6 2.32 -6 3 C-8.31 2.67 -10.62 2.34 -13 2 C-13 1.67 -13 1.34 -13 1 C-8.59085217 -0.10228696 -4.51617599 -0.07654536 0 0 Z " fill="#BCBABA" transform="translate(175,349)"/>
<path d="M0 0 C1.32 0 2.64 0 4 0 C4.66 2.64 5.32 5.28 6 8 C5.01 8.495 5.01 8.495 4 9 C3.71125 8.030625 3.4225 7.06125 3.125 6.0625 C2.35785318 2.89335797 2.35785318 2.89335797 0 2 C0 1.34 0 0.68 0 0 Z " fill="#42B4CD" transform="translate(145,278)"/>
<path d="M0 0 C3.29714793 0.32971479 4.6226839 0.6226839 7 3 C4.21176345 4.0326802 3.1322726 4.04509293 0.25 3.0625 C-0.4925 2.711875 -1.235 2.36125 -2 2 C-1.34 1.34 -0.68 0.68 0 0 Z " fill="#056DAA" transform="translate(139,156)"/>
<path d="M0 0 C2.12508244 3.18762365 2.5020163 5.26512223 3 9 C0.9375 7.3125 0.9375 7.3125 -1 5 C-0.75 2.25 -0.75 2.25 0 0 Z " fill="#192B51" transform="translate(109,124)"/>
<path d="M0 0 C1.32 0 2.64 0 4 0 C3.25 1.9375 3.25 1.9375 2 4 C-0.125 4.75 -0.125 4.75 -2 5 C-2 4.34 -2 3.68 -2 3 C-1.34 3 -0.68 3 0 3 C0 2.01 0 1.02 0 0 Z " fill="#0E6BAA" transform="translate(238,192)"/>
<path d="M0 0 C0.99 0.33 1.98 0.66 3 1 C-0.465 3.97 -0.465 3.97 -4 7 C-4 6.01 -4 5.02 -4 4 C-3.01 3.67 -2.02 3.34 -1 3 C-0.67 2.01 -0.34 1.02 0 0 Z " fill="#1E4D93" transform="translate(153,103)"/>
<path d="M0 0 C-1.32 0.33 -2.64 0.66 -4 1 C-4 1.66 -4 2.32 -4 3 C-6.64 3 -9.28 3 -12 3 C-12 2.67 -12 2.34 -12 2 C-7.82262526 0.40861915 -4.46839215 -0.21278058 0 0 Z " fill="#D2D1D2" transform="translate(175,346)"/>
<path d="M0 0 C5.75 -0.125 5.75 -0.125 8 1 C8 1.66 8 2.32 8 3 C5.6568787 2.74438677 3.32156597 2.40729228 1 2 C0.67 1.34 0.34 0.68 0 0 Z " fill="#364777" transform="translate(150,302)"/>
<path d="M0 0 C2.76390737 2.40339772 3.04065919 3.16263678 4 7 C1.69 5.35 -0.62 3.7 -3 2 C-2.01 1.34 -1.02 0.68 0 0 Z " fill="#5A678F" transform="translate(287,134)"/>
</svg>
